<?xml version="1.0" encoding="UTF-8"?>
<!DOCTYPE svg PUBLIC "-//W3C//DTD SVG 1.1//EN" "http://www.w3.org/Graphics/SVG/1.1/DTD/svg11.dtd">
<svg xmlns="http://www.w3.org/2000/svg" version="1.1" width="326px" height="339px" style="shape-rendering:geometricPrecision; text-rendering:geometricPrecision; image-rendering:optimizeQuality; fill-rule:evenodd; clip-rule:evenodd" xmlns:xlink="http://www.w3.org/1999/xlink">
<g><path style="opacity:0.748" fill="#0f3e57" d="M 175.5,0.5 C 183.539,1.3406 191.539,2.50727 199.5,4C 202.79,4.72492 205.79,5.89158 208.5,7.5C 204.803,6.99219 201.136,6.32552 197.5,5.5C 196.833,5.5 196.167,5.5 195.5,5.5C 188.824,3.83295 182.157,2.16629 175.5,0.5 Z"/></g>
<g><path style="opacity:1" fill="#0084de" d="M 195.5,5.5 C 196.167,5.5 196.833,5.5 197.5,5.5C 200.047,6.99868 202.714,8.49868 205.5,10C 215.66,12.7491 224.993,17.0825 233.5,23C 241.137,25.3197 248.137,28.9863 254.5,34C 256.213,35.3782 257.547,37.0448 258.5,39C 255.294,39.6247 254.294,41.2914 255.5,44C 255,44.5 254.5,45 254,45.5C 249.799,41.1785 244.632,38.8451 238.5,38.5C 228.211,32.8572 217.878,27.5238 207.5,22.5C 207.5,21.1667 207.5,19.8333 207.5,18.5C 203.531,17.3397 199.531,16.1731 195.5,15C 171.388,12.4216 147.388,13.0883 123.5,17C 116.677,19.9571 109.677,22.4571 102.5,24.5C 102.804,23.8501 103.137,23.1835 103.5,22.5C 113.092,18.4336 123.092,15.6002 133.5,14C 132.672,13.0853 131.672,12.4186 130.5,12C 131.308,11.6924 131.975,11.1924 132.5,10.5C 129.92,9.45115 127.254,8.78449 124.5,8.5C 140.889,2.76915 157.889,0.93582 175.5,3C 182.19,3.72644 188.856,4.55978 195.5,5.5 Z"/></g>
<g><path style="opacity:0.38" fill="#103e56" d="M 129.5,3.5 C 112.01,7.90446 95.3437,14.5711 79.5,23.5C 79.3691,22.6236 79.7025,21.9569 80.5,21.5C 95.6909,12.4052 112.024,6.40517 129.5,3.5 Z"/></g>
<g><path style="opacity:1" fill="#0277be" d="M 207.5,22.5 C 197.832,20.3995 188.166,18.2328 178.5,16C 140.62,11.8183 106.62,20.985 76.5,43.5C 76.5,42.1667 76.5,40.8333 76.5,39.5C 80.2423,38.1185 83.5757,35.9518 86.5,33C 92.0482,30.3949 97.3815,27.5615 102.5,24.5C 109.677,22.4571 116.677,19.9571 123.5,17C 147.388,13.0883 171.388,12.4216 195.5,15C 199.531,16.1731 203.531,17.3397 207.5,18.5C 207.5,19.8333 207.5,21.1667 207.5,22.5 Z"/></g>
<g><path style="opacity:1" fill="#1b1f23" d="M 207.5,22.5 C 217.878,27.5238 228.211,32.8572 238.5,38.5C 253.351,48.6775 266.684,60.6775 278.5,74.5C 284.157,82.4699 289.323,90.8033 294,99.5C 295.982,105.836 298.482,112.003 301.5,118C 303.079,123.482 304.412,128.982 305.5,134.5C 307.282,145.084 308.282,155.751 308.5,166.5C 308.246,176.866 307.579,187.199 306.5,197.5C 304.846,207.433 302.179,217.099 298.5,226.5C 298.5,226.833 298.5,227.167 298.5,227.5C 286.145,254.203 268.478,276.869 245.5,295.5C 239.655,298.921 233.988,302.587 228.5,306.5C 210.437,315.075 191.437,320.409 171.5,322.5C 131.143,323.371 96.1429,310.371 66.5,283.5C 63.5,279.833 60.1667,276.5 56.5,273.5C 50.7748,266.405 45.2748,259.072 40,251.5C 36.9522,244.796 33.4522,238.463 29.5,232.5C 26.0622,221.946 22.8955,211.279 20,200.5C 19.5901,193.894 18.4235,187.561 16.5,181.5C 13.9563,145.151 22.2896,111.818 41.5,81.5C 51.0435,67.2867 62.3768,54.62 75.5,43.5C 75.8333,43.5 76.1667,43.5 76.5,43.5C 106.62,20.985 140.62,11.8183 178.5,16C 188.166,18.2328 197.832,20.3995 207.5,22.5 Z"/></g>
<g><path style="opacity:1" fill="#007bdc" d="M 124.5,8.5 C 127.254,8.78449 129.92,9.45115 132.5,10.5C 131.975,11.1924 131.308,11.6924 130.5,12C 131.672,12.4186 132.672,13.0853 133.5,14C 123.092,15.6002 113.092,18.4336 103.5,22.5C 103.137,23.1835 102.804,23.8501 102.5,24.5C 97.3815,27.5615 92.0482,30.3949 86.5,33C 83.5757,35.9518 80.2423,38.1185 76.5,39.5C 76.5,40.8333 76.5,42.1667 76.5,43.5C 76.1667,43.5 75.8333,43.5 75.5,43.5C 71.7829,44.5274 68.4495,46.3607 65.5,49C 56.7501,55.8437 48.7501,63.3437 41.5,71.5C 37.9174,72.7296 36.7507,71.3962 38,67.5C 39.3333,65.5 40.6667,63.5 42,61.5C 50.016,52.6512 57.8493,43.6512 65.5,34.5C 69.5082,34.0136 73.0082,32.3469 76,29.5C 78.7776,30.6853 80.2776,29.6853 80.5,26.5C 83.4786,25.6827 86.4786,24.8494 89.5,24C 95.3644,20.1201 101.364,16.4534 107.5,13C 113.499,13.3347 118.666,11.5013 123,7.5C 123.383,8.05596 123.883,8.38929 124.5,8.5 Z"/></g>
<g><path style="opacity:1" fill="#0276c2" d="M 146.5,-0.5 C 146.833,-0.5 147.167,-0.5 147.5,-0.5C 151.614,0.826068 156.114,1.49273 161,1.5C 165.886,1.49273 170.386,0.826068 174.5,-0.5C 174.833,-0.5 175.167,-0.5 175.5,-0.5C 175.5,-0.166667 175.5,0.166667 175.5,0.5C 182.157,2.16629 188.824,3.83295 195.5,5.5C 188.856,4.55978 182.19,3.72644 175.5,3C 157.889,0.93582 140.889,2.76915 124.5,8.5C 123.883,8.38929 123.383,8.05596 123,7.5C 118.666,11.5013 113.499,13.3347 107.5,13C 101.364,16.4534 95.3644,20.1201 89.5,24C 86.4786,24.8494 83.4786,25.6827 80.5,26.5C 80.2776,29.6853 78.7776,30.6853 76,29.5C 73.0082,32.3469 69.5082,34.0136 65.5,34.5C 69.7545,30.365 74.4211,26.6983 79.5,23.5C 95.3437,14.5711 112.01,7.90446 129.5,3.5C 135.115,1.91067 140.781,0.577338 146.5,-0.5 Z"/></g>
<g><path style="opacity:0.141" fill="#113e5a" d="M 147.5,-0.5 C 156.5,-0.5 165.5,-0.5 174.5,-0.5C 170.386,0.826068 165.886,1.49273 161,1.5C 156.114,1.49273 151.614,0.826068 147.5,-0.5 Z"/></g>
<g><path style="opacity:1" fill="#1c1c1c" d="M 167.5,35.5 C 170.206,35.5751 172.873,35.9084 175.5,36.5C 191.946,39.3315 207.613,44.6648 222.5,52.5C 240.007,63.0069 255.007,76.3402 267.5,92.5C 279.484,110.744 286.484,130.744 288.5,152.5C 289.154,169.296 288.154,185.963 285.5,202.5C 280.034,222.263 270.7,240.096 257.5,256C 243.833,256.333 230.167,256.667 216.5,257C 215.374,260.744 215.207,264.577 216,268.5C 216.383,269.056 216.883,269.389 217.5,269.5C 225.719,269.846 233.719,270.846 241.5,272.5C 238.833,274.833 236.167,277.167 233.5,279.5C 215.75,290.861 196.417,297.861 175.5,300.5C 164.828,300.667 154.161,300.5 143.5,300C 129.474,296.494 116.141,291.327 103.5,284.5C 99.7236,282.099 96.0569,279.433 92.5,276.5C 91.6143,275.675 91.281,274.675 91.5,273.5C 102.838,273.667 114.172,273.5 125.5,273C 129.695,269.97 133.361,266.47 136.5,262.5C 137.404,261.791 137.737,260.791 137.5,259.5C 116.5,259.5 95.5,259.5 74.5,259.5C 70.3671,255.879 66.7004,251.879 63.5,247.5C 58.0897,238.35 52.9231,229.017 48,219.5C 44.0849,208.75 41.2516,197.75 39.5,186.5C 38.2244,172.836 38.2244,159.169 39.5,145.5C 42.0991,127.997 47.7658,111.663 56.5,96.5C 56.5,96.1667 56.5,95.8333 56.5,95.5C 65.3734,81.6233 76.3734,69.6233 89.5,59.5C 112.701,42.8805 138.701,34.8805 167.5,35.5 Z"/></g>
<g><path style="opacity:1" fill="#0276b5" d="M 167.5,35.5 C 138.701,34.8805 112.701,42.8805 89.5,59.5C 89.33,58.1779 89.6634,57.0113 90.5,56C 102.031,48.3659 114.364,42.3659 127.5,38C 140.704,34.3944 154.037,33.5611 167.5,35.5 Z"/></g>
<g><path style="opacity:1" fill="#0085e4" d="M 222.5,37.5 C 222.833,37.5 223.167,37.5 223.5,37.5C 223.491,39.3084 223.991,40.9751 225,42.5C 227.897,43.5234 230.064,45.3567 231.5,48C 234.121,48.9385 236.788,49.7719 239.5,50.5C 244.354,53.8245 249.02,57.1579 253.5,60.5C 253.372,62.6547 253.872,64.6547 255,66.5C 255.718,65.5494 256.551,65.3828 257.5,66C 258.891,68.3903 260.891,70.0569 263.5,71C 264.38,72.3561 264.714,73.8561 264.5,75.5C 261.421,75.7399 258.421,75.4066 255.5,74.5C 255.251,70.7508 253.251,68.9174 249.5,69C 246.03,66.8553 242.864,64.3553 240,61.5C 239.51,60.2068 239.343,58.8734 239.5,57.5C 236.009,57.5168 233.342,56.0168 231.5,53C 228.518,52.502 225.518,52.3354 222.5,52.5C 221.294,48.6349 218.627,46.6349 214.5,46.5C 214.029,45.0992 213.362,43.7658 212.5,42.5C 197.088,37.3136 181.254,33.6469 165,31.5C 151.996,32.4285 139.162,33.9285 126.5,36C 111.342,41.5791 97.0085,48.7457 83.5,57.5C 81.041,55.9497 80.3743,53.9497 81.5,51.5C 84.7086,50.7851 87.7086,49.6185 90.5,48C 93.718,42.779 98.3846,40.1123 104.5,40C 107.174,37.7103 110.174,35.877 113.5,34.5C 116.107,33.6816 118.774,33.1816 121.5,33C 122.743,31.8455 123.743,30.5122 124.5,29C 130.957,28.7215 137.29,27.7215 143.5,26C 152.5,25.3333 161.5,25.3333 170.5,26C 171.818,26.6942 172.651,27.5275 173,28.5C 174.22,27.6119 175.553,26.9452 177,26.5C 192.343,29.6251 207.509,33.2918 222.5,37.5 Z"/></g>
<g><path style="opacity:1" fill="#0477b6" d="M 175.5,36.5 C 185.38,36.0996 194.713,37.9329 203.5,42C 205.833,42.3333 208.167,42.6667 210.5,43C 211.103,45.0714 212.436,46.2381 214.5,46.5C 218.627,46.6349 221.294,48.6349 222.5,52.5C 207.613,44.6648 191.946,39.3315 175.5,36.5 Z"/></g>
<g><path style="opacity:0.561" fill="#0f445d" d="M 208.5,7.5 C 226.793,12.6465 243.46,20.9799 258.5,32.5C 284.426,52.5881 303.259,77.9214 315,108.5C 317.232,114.687 318.732,121.021 319.5,127.5C 310.924,93.1962 293.257,64.3629 266.5,41C 248.802,26.9404 229.469,15.7738 208.5,7.5 Z"/></g>
<g><path style="opacity:1" fill="#0278c5" d="M 222.5,37.5 C 207.509,33.2918 192.343,29.6251 177,26.5C 175.553,26.9452 174.22,27.6119 173,28.5C 172.651,27.5275 171.818,26.6942 170.5,26C 161.5,25.3333 152.5,25.3333 143.5,26C 137.29,27.7215 130.957,28.7215 124.5,29C 123.743,30.5122 122.743,31.8455 121.5,33C 118.774,33.1816 116.107,33.6816 113.5,34.5C 110.174,35.877 107.174,37.7103 104.5,40C 98.3846,40.1123 93.718,42.779 90.5,48C 87.7086,49.6185 84.7086,50.7851 81.5,51.5C 80.3743,53.9497 81.041,55.9497 83.5,57.5C 97.0085,48.7457 111.342,41.5791 126.5,36C 139.162,33.9285 151.996,32.4285 165,31.5C 181.254,33.6469 197.088,37.3136 212.5,42.5C 213.362,43.7658 214.029,45.0992 214.5,46.5C 212.436,46.2381 211.103,45.0714 210.5,43C 208.167,42.6667 205.833,42.3333 203.5,42C 194.713,37.9329 185.38,36.0996 175.5,36.5C 172.873,35.9084 170.206,35.5751 167.5,35.5C 154.037,33.5611 140.704,34.3944 127.5,38C 114.364,42.3659 102.031,48.3659 90.5,56C 89.6634,57.0113 89.33,58.1779 89.5,59.5C 76.3734,69.6233 65.3734,81.6233 56.5,95.5C 56.8257,92.6887 57.6591,90.022 59,87.5C 62.0565,82.4352 65.8898,77.9352 70.5,74C 70.1667,73.6667 69.8333,73.3333 69.5,73C 71.9816,71.0785 73.6482,68.5785 74.5,65.5C 76.8273,63.2171 79.494,61.3837 82.5,60C 80.6942,59.1904 79.1942,58.0238 78,56.5C 74.7173,57.9479 72.2173,60.2812 70.5,63.5C 68.2534,64.3742 65.9201,64.7076 63.5,64.5C 84.4136,41.5499 110.414,27.7165 141.5,23C 167.369,19.9751 192.369,23.3084 216.5,33C 218.389,34.7641 220.389,36.2641 222.5,37.5 Z"/></g>
<g><path style="opacity:0.812" fill="#103e5a" d="M 79.5,23.5 C 74.4211,26.6983 69.7545,30.365 65.5,34.5C 56.6021,40.8915 48.4354,48.2248 41,56.5C 33.1905,66.461 26.0238,76.7943 19.5,87.5C 21.8567,81.1221 25.0233,75.1221 29,69.5C 34.6667,62.5 40.3333,55.5 46,48.5C 53.2365,41.5899 60.7365,35.0899 68.5,29C 71.9522,26.6072 75.6189,24.7739 79.5,23.5 Z"/></g>
<g><path style="opacity:1" fill="#0179cb" d="M 65.5,34.5 C 57.8493,43.6512 50.016,52.6512 42,61.5C 40.6667,63.5 39.3333,65.5 38,67.5C 36.7507,71.3962 37.9174,72.7296 41.5,71.5C 48.7501,63.3437 56.7501,55.8437 65.5,49C 68.4495,46.3607 71.7829,44.5274 75.5,43.5C 62.3768,54.62 51.0435,67.2867 41.5,81.5C 40.1805,82.9418 38.5138,83.6085 36.5,83.5C 40.0138,77.1253 38.6804,74.792 32.5,76.5C 29.5905,82.2384 25.7572,87.2384 21,91.5C 20.7034,95.9599 18.5368,98.9599 14.5,100.5C 15.038,98.8828 15.3713,97.2161 15.5,95.5C 15.7936,92.2459 17.127,89.5792 19.5,87.5C 26.0238,76.7943 33.1905,66.461 41,56.5C 48.4354,48.2248 56.6021,40.8915 65.5,34.5 Z"/></g>
<g><path style="opacity:1" fill="#0182d1" d="M 223.5,37.5 C 239.463,45.4462 253.463,56.1129 265.5,69.5C 266.867,75.2357 269.533,80.2357 273.5,84.5C 272.749,85.5735 271.749,85.7401 270.5,85C 269.31,82.8836 267.977,80.8836 266.5,79C 262.912,78.3886 261.746,79.8886 263,83.5C 265.832,85.81 267.332,88.81 267.5,92.5C 255.007,76.3402 240.007,63.0069 222.5,52.5C 225.518,52.3354 228.518,52.502 231.5,53C 233.342,56.0168 236.009,57.5168 239.5,57.5C 239.343,58.8734 239.51,60.2068 240,61.5C 242.864,64.3553 246.03,66.8553 249.5,69C 253.251,68.9174 255.251,70.7508 255.5,74.5C 258.421,75.4066 261.421,75.7399 264.5,75.5C 264.714,73.8561 264.38,72.3561 263.5,71C 260.891,70.0569 258.891,68.3903 257.5,66C 256.551,65.3828 255.718,65.5494 255,66.5C 253.872,64.6547 253.372,62.6547 253.5,60.5C 249.02,57.1579 244.354,53.8245 239.5,50.5C 236.788,49.7719 234.121,48.9385 231.5,48C 230.064,45.3567 227.897,43.5234 225,42.5C 223.991,40.9751 223.491,39.3084 223.5,37.5 Z"/></g>
<g><path style="opacity:1" fill="#afaeaf" d="M 227.5,88.5 C 213.522,87.6118 199.522,87.2784 185.5,87.5C 185.5,94.1667 185.5,100.833 185.5,107.5C 197.012,107.172 208.346,107.505 219.5,108.5C 207.833,108.5 196.167,108.5 184.5,108.5C 184.5,101.167 184.5,93.8333 184.5,86.5C 197.504,86.3334 210.504,86.5001 223.5,87C 225.058,87.21 226.391,87.71 227.5,88.5 Z"/></g>
<g><path style="opacity:1" fill="#017dc0" d="M 265.5,69.5 C 278.255,81.998 287.755,96.6646 294,113.5C 304.42,142.529 306.42,172.196 300,202.5C 298.766,206.715 297.266,210.715 295.5,214.5C 297.521,196.036 299.521,177.703 301.5,159.5C 299.206,145.63 296.373,131.963 293,118.5C 292.333,117.833 291.667,117.167 291,116.5C 289.578,109.072 286.245,102.739 281,97.5C 280.341,92.0294 277.841,87.6961 273.5,84.5C 269.533,80.2357 266.867,75.2357 265.5,69.5 Z"/></g>
<g><path style="opacity:1" fill="#0071d4" d="M 56.5,95.5 C 56.5,95.8333 56.5,96.1667 56.5,96.5C 55.1779,96.33 54.0113,96.6634 53,97.5C 51.8333,100 50.6667,102.5 49.5,105C 48.2575,105.311 47.2575,104.811 46.5,103.5C 45.914,103.709 45.414,104.043 45,104.5C 43.1982,111.102 41.6982,117.769 40.5,124.5C 39.0689,124.881 38.2355,125.881 38,127.5C 36.0376,134.02 34.7042,140.687 34,147.5C 33.5868,161.024 33.2534,174.357 33,187.5C 31.4374,190.044 29.9374,190.044 28.5,187.5C 27.2344,171.468 27.5677,155.468 29.5,139.5C 30.8055,134.257 31.6388,128.924 32,123.5C 35.5807,114.05 39.4141,104.717 43.5,95.5C 44.675,95.719 45.675,95.3857 46.5,94.5C 49.6924,84.4666 55.1924,75.8 63,68.5C 63.49,67.2068 63.6567,65.8734 63.5,64.5C 65.9201,64.7076 68.2534,64.3742 70.5,63.5C 72.2173,60.2812 74.7173,57.9479 78,56.5C 79.1942,58.0238 80.6942,59.1904 82.5,60C 79.494,61.3837 76.8273,63.2171 74.5,65.5C 73.6482,68.5785 71.9816,71.0785 69.5,73C 69.8333,73.3333 70.1667,73.6667 70.5,74C 65.8898,77.9352 62.0565,82.4352 59,87.5C 57.6591,90.022 56.8257,92.6887 56.5,95.5 Z"/></g>
<g><path style="opacity:1" fill="#026db5" d="M 56.5,96.5 C 47.7658,111.663 42.0991,127.997 39.5,145.5C 38.6862,147.631 38.1862,149.964 38,152.5C 37.5002,161.494 37.3336,170.494 37.5,179.5C 36.3405,168.007 36.1739,156.341 37,144.5C 38.8104,137.93 39.9771,131.263 40.5,124.5C 41.6982,117.769 43.1982,111.102 45,104.5C 45.414,104.043 45.914,103.709 46.5,103.5C 47.2575,104.811 48.2575,105.311 49.5,105C 50.6667,102.5 51.8333,100 53,97.5C 54.0113,96.6634 55.1779,96.33 56.5,96.5 Z"/></g>
<g><path style="opacity:1" fill="#0075d3" d="M 36.5,83.5 C 35.6631,86.8522 34.1631,89.8522 32,92.5C 31.8142,94.9005 31.3142,97.2338 30.5,99.5C 25.4441,101.77 23.2775,105.77 24,111.5C 20.5442,116.019 18.3776,121.019 17.5,126.5C 17.5875,123.402 17.0875,123.068 16,125.5C 14.4443,124.48 13.2776,123.147 12.5,121.5C 13.5,118.833 14.5,116.167 15.5,113.5C 15.1667,112.833 14.8333,112.167 14.5,111.5C 13.7918,113.745 12.7918,115.745 11.5,117.5C 12.2223,111.775 13.2223,106.108 14.5,100.5C 18.5368,98.9599 20.7034,95.9599 21,91.5C 25.7572,87.2384 29.5905,82.2384 32.5,76.5C 38.6804,74.792 40.0138,77.1253 36.5,83.5 Z"/></g>
<g><path style="opacity:1" fill="#686868" d="M 86.5,99.5 C 86.3357,106.202 86.669,112.869 87.5,119.5C 85.9524,115.966 85.2857,112.133 85.5,108C 85.5022,104.979 85.8356,102.146 86.5,99.5 Z"/></g>
<g><path style="opacity:0.667" fill="#14324c" d="M 15.5,95.5 C 15.3713,97.2161 15.038,98.8828 14.5,100.5C 4.95562,123.398 0.455616,147.398 1,172.5C 0.617425,173.056 0.117425,173.389 -0.5,173.5C -0.5,167.5 -0.5,161.5 -0.5,155.5C 1.37389,136.009 5.87389,117.009 13,98.5C 13.3768,97.0577 14.2101,96.0577 15.5,95.5 Z"/></g>
<g><path style="opacity:1" fill="#0269ae" d="M 41.5,81.5 C 22.2896,111.818 13.9563,145.151 16.5,181.5C 16.5,184.833 16.5,188.167 16.5,191.5C 16.1667,191.5 15.8333,191.5 15.5,191.5C 14.0226,169.777 14.6893,148.11 17.5,126.5C 18.3776,121.019 20.5442,116.019 24,111.5C 23.2775,105.77 25.4441,101.77 30.5,99.5C 31.3142,97.2338 31.8142,94.9005 32,92.5C 34.1631,89.8522 35.6631,86.8522 36.5,83.5C 38.5138,83.6085 40.1805,82.9418 41.5,81.5 Z"/></g>
<g><path style="opacity:1" fill="#0064c2" d="M 17.5,126.5 C 14.6893,148.11 14.0226,169.777 15.5,191.5C 16.4428,198.144 16.6095,204.811 16,211.5C 14.7071,206.258 12.8738,201.258 10.5,196.5C 9.67504,195.614 8.67504,195.281 7.5,195.5C 6.92622,190.817 6.25955,186.15 5.5,181.5C 5.64996,168.848 5.48329,156.181 5,143.5C 6.90911,134.71 9.07577,126.043 11.5,117.5C 12.7918,115.745 13.7918,113.745 14.5,111.5C 14.8333,112.167 15.1667,112.833 15.5,113.5C 14.5,116.167 13.5,118.833 12.5,121.5C 13.2776,123.147 14.4443,124.48 16,125.5C 17.0875,123.068 17.5875,123.402 17.5,126.5 Z"/></g>
<g><path style="opacity:1" fill="#0365aa" d="M 63.5,64.5 C 63.6567,65.8734 63.49,67.2068 63,68.5C 55.1924,75.8 49.6924,84.4666 46.5,94.5C 45.675,95.3857 44.675,95.719 43.5,95.5C 39.4141,104.717 35.5807,114.05 32,123.5C 31.6388,128.924 30.8055,134.257 29.5,139.5C 26.4583,148.965 25.1249,158.798 25.5,169C 26.0073,180.543 27.0073,192.043 28.5,203.5C 16.8218,159.454 23.6552,118.454 49,80.5C 53.6165,74.9045 58.4498,69.5712 63.5,64.5 Z"/></g>
<g><path style="opacity:1" fill="#008de9" d="M 273.5,84.5 C 277.841,87.6961 280.341,92.0294 281,97.5C 286.245,102.739 289.578,109.072 291,116.5C 291.667,117.167 292.333,117.833 293,118.5C 296.373,131.963 299.206,145.63 301.5,159.5C 299.521,177.703 297.521,196.036 295.5,214.5C 292.163,220.589 288.663,226.589 285,232.5C 283.119,236.307 281.953,240.307 281.5,244.5C 279.61,244.297 278.11,244.963 277,246.5C 274.937,253.225 271.27,258.892 266,263.5C 265.517,264.448 265.351,265.448 265.5,266.5C 264.448,266.351 263.448,266.517 262.5,267C 260.183,270.139 257.85,273.306 255.5,276.5C 253.028,277.896 250.362,278.73 247.5,279C 244.277,286.944 238.61,289.944 230.5,288C 233.255,286.289 235.589,284.122 237.5,281.5C 235.979,281.12 234.313,280.954 232.5,281C 233.056,280.617 233.389,280.117 233.5,279.5C 235.199,279.66 236.866,279.494 238.5,279C 239.851,277.383 241.518,276.216 243.5,275.5C 244.788,272.966 244.788,270.466 243.5,268C 240.893,267.182 238.226,266.682 235.5,266.5C 229.529,266.32 223.529,266.654 217.5,267.5C 217.5,264.833 217.5,262.167 217.5,259.5C 232.289,259.868 246.955,259.035 261.5,257C 263.652,252.731 266.152,248.565 269,244.5C 271.147,242.524 273.647,241.191 276.5,240.5C 277.833,237.833 277.833,235.167 276.5,232.5C 283.14,224.387 287.807,215.22 290.5,205C 290.601,192.538 291.268,180.038 292.5,167.5C 292.13,164.671 291.797,161.838 291.5,159C 292.601,155.575 293.101,152.075 293,148.5C 289.724,136.675 286.058,125.008 282,113.5C 278.166,106.791 274.333,100.124 270.5,93.5C 269.583,92.8728 268.583,92.5394 267.5,92.5C 267.332,88.81 265.832,85.81 263,83.5C 261.746,79.8886 262.912,78.3886 266.5,79C 267.977,80.8836 269.31,82.8836 270.5,85C 271.749,85.7401 272.749,85.5735 273.5,84.5 Z"/></g>
<g><path style="opacity:1" fill="#015ea5" d="M 14.5,100.5 C 13.2223,106.108 12.2223,111.775 11.5,117.5C 9.07577,126.043 6.90911,134.71 5,143.5C 5.48329,156.181 5.64996,168.848 5.5,181.5C 4.84014,182.964 4.50681,184.631 4.5,186.5C 5.27721,192.161 5.94387,197.828 6.5,203.5C 4.24386,193.886 2.24386,184.219 0.5,174.5C 0.166667,174.5 -0.166667,174.5 -0.5,174.5C -0.5,174.167 -0.5,173.833 -0.5,173.5C 0.117425,173.389 0.617425,173.056 1,172.5C 0.455616,147.398 4.95562,123.398 14.5,100.5 Z"/></g>
<g><path style="opacity:1" fill="#f3f3f3" d="M 87.5,119.5 C 86.669,112.869 86.3357,106.202 86.5,99.5C 91.4281,81.4073 103.095,70.2406 121.5,66C 140.335,63.6328 157.668,67.6328 173.5,78C 174.059,78.7247 174.392,79.5581 174.5,80.5C 173.009,87.0983 172.009,93.765 171.5,100.5C 165.489,97.998 159.489,95.1647 153.5,92C 142.238,86.5918 130.904,86.2584 119.5,91C 117,93.5 114.5,96 112,98.5C 110.445,103.382 110.112,108.382 111,113.5C 113.448,117.615 116.281,121.448 119.5,125C 130.517,131.509 141.85,137.509 153.5,143C 178.343,156.188 185.843,176.022 176,202.5C 168.156,214.846 156.989,222.346 142.5,225C 136.167,225.667 129.833,225.667 123.5,225C 114.456,222.263 105.456,219.429 96.5,216.5C 96.3338,210.491 96.5005,204.491 97,198.5C 97.3095,197.234 97.8095,196.067 98.5,195C 101.491,195.305 104.491,195.972 107.5,197C 120.802,204.822 134.468,205.488 148.5,199C 155.135,192.504 157.302,184.671 155,175.5C 151.737,169.781 147.237,165.281 141.5,162C 127.524,155.682 114.191,148.349 101.5,140C 95.423,133.975 90.7563,127.142 87.5,119.5 Z"/></g>
<g><path style="opacity:0.847" fill="#0a3d54" d="M 319.5,127.5 C 322.55,134.057 323.883,141.057 323.5,148.5C 322.423,142.781 321.089,137.115 319.5,131.5C 319.5,130.167 319.5,128.833 319.5,127.5 Z"/></g>
<g><path style="opacity:1" fill="#008ad9" d="M 197.5,5.5 C 201.136,6.32552 204.803,6.99219 208.5,7.5C 229.469,15.7738 248.802,26.9404 266.5,41C 293.257,64.3629 310.924,93.1962 319.5,127.5C 319.5,128.833 319.5,130.167 319.5,131.5C 319.365,137.63 320.199,143.63 322,149.5C 322.667,160.5 322.667,171.5 322,182.5C 319.585,194.829 317.251,207.163 315,219.5C 314.066,220.858 313.232,222.192 312.5,223.5C 313.141,217.523 313.641,211.523 314,205.5C 316.722,202.582 316.555,199.582 313.5,196.5C 315.011,194.162 314.677,193.496 312.5,194.5C 311.749,193.624 311.249,192.624 311,191.5C 308.424,200.853 306.591,210.02 305.5,219C 304.234,219.309 303.067,219.809 302,220.5C 301.939,223.277 300.772,225.277 298.5,226.5C 302.179,217.099 304.846,207.433 306.5,197.5C 312.043,176.394 311.71,155.394 305.5,134.5C 304.412,128.982 303.079,123.482 301.5,118C 298.482,112.003 295.982,105.836 294,99.5C 289.323,90.8033 284.157,82.4699 278.5,74.5C 266.684,60.6775 253.351,48.6775 238.5,38.5C 244.632,38.8451 249.799,41.1785 254,45.5C 254.5,45 255,44.5 255.5,44C 254.294,41.2914 255.294,39.6247 258.5,39C 257.547,37.0448 256.213,35.3782 254.5,34C 248.137,28.9863 241.137,25.3197 233.5,23C 224.993,17.0825 215.66,12.7491 205.5,10C 202.714,8.49868 200.047,6.99868 197.5,5.5 Z"/></g>
<g><path style="opacity:1" fill="#0090ec" d="M 278.5,74.5 C 280.387,68.3752 278.054,65.3752 271.5,65.5C 270.969,62.763 270.136,60.0964 269,57.5C 267.853,58.4581 266.853,58.1247 266,56.5C 263.361,52.3612 260.528,48.3612 257.5,44.5C 258.5,43.1667 259.5,41.8333 260.5,40.5C 262.323,41.7472 264.323,42.4139 266.5,42.5C 266.351,43.552 266.517,44.552 267,45.5C 270.351,48.8482 274.018,51.8482 278,54.5C 278.892,57.9518 280.558,60.9518 283,63.5C 287.479,65.9769 290.479,69.6435 292,74.5C 293.333,75.1667 294.667,75.8333 296,76.5C 297.182,80.1882 298.348,83.8548 299.5,87.5C 301.124,87.3601 302.29,88.0267 303,89.5C 304.215,94.9258 305.715,100.259 307.5,105.5C 310.048,108.981 311.548,112.981 312,117.5C 312.414,117.957 312.914,118.291 313.5,118.5C 314.256,122.662 314.923,126.829 315.5,131C 316.009,132.169 316.842,133.002 318,133.5C 318.566,138.827 319.066,144.161 319.5,149.5C 317.654,161.989 316.987,174.655 317.5,187.5C 315.052,187.99 313.385,187.157 312.5,185C 315.231,173.653 316.065,162.153 315,150.5C 312.079,142.063 310.246,133.396 309.5,124.5C 304.099,117.191 300.432,109.024 298.5,100C 294.205,93.243 290.038,86.4097 286,79.5C 284.933,78.8095 283.766,78.3095 282.5,78C 282.957,77.586 283.291,77.086 283.5,76.5C 281.978,75.438 280.312,74.7713 278.5,74.5 Z"/></g>
<g><path style="opacity:1" fill="#f4f4f4" d="M 227.5,88.5 C 244.897,93.4002 253.897,104.9 254.5,123C 253.689,144.487 242.689,157.487 221.5,162C 216.845,162.499 212.179,162.666 207.5,162.5C 207.335,165.85 207.502,169.183 208,172.5C 215.833,179 223.667,185.5 231.5,192C 240.961,201.497 244.294,212.997 241.5,226.5C 233.5,226.5 225.5,226.5 217.5,226.5C 217.897,221.041 217.397,215.708 216,210.5C 208.463,203.294 200.629,196.46 192.5,190C 190.372,186.87 187.872,184.037 185,181.5C 184.5,168.838 184.333,156.171 184.5,143.5C 195.505,143.667 206.505,143.5 217.5,143C 224.228,141.273 228.728,137.106 231,130.5C 232.951,123.095 231.118,116.929 225.5,112C 223.336,110.978 221.336,109.811 219.5,108.5C 208.346,107.505 197.012,107.172 185.5,107.5C 185.5,100.833 185.5,94.1667 185.5,87.5C 199.522,87.2784 213.522,87.6118 227.5,88.5 Z"/></g>
<g><path style="opacity:1" fill="#056495" d="M 305.5,134.5 C 311.71,155.394 312.043,176.394 306.5,197.5C 307.579,187.199 308.246,176.866 308.5,166.5C 308.282,155.751 307.282,145.084 305.5,134.5 Z"/></g>
<g><path style="opacity:1" fill="#143a57" d="M 39.5,145.5 C 38.2244,159.169 38.2244,172.836 39.5,186.5C 38.8333,184.5 38.1667,182.5 37.5,180.5C 37.5,180.167 37.5,179.833 37.5,179.5C 37.3336,170.494 37.5002,161.494 38,152.5C 38.1862,149.964 38.6862,147.631 39.5,145.5 Z"/></g>
<g><path style="opacity:0.724" fill="#113e56" d="M 323.5,148.5 C 324.167,152.167 324.833,155.833 325.5,159.5C 325.5,164.833 325.5,170.167 325.5,175.5C 324.518,178.962 324.185,182.629 324.5,186.5C 323.505,174.011 323.171,161.344 323.5,148.5 Z"/></g>
<g><path style="opacity:1" fill="#005fb5" d="M 40.5,124.5 C 39.9771,131.263 38.8104,137.93 37,144.5C 36.1739,156.341 36.3405,168.007 37.5,179.5C 37.5,179.833 37.5,180.167 37.5,180.5C 37.8388,188.198 38.5055,195.865 39.5,203.5C 38.7784,203.082 38.2784,202.416 38,201.5C 37.5017,198.183 37.335,194.85 37.5,191.5C 35.8762,191.64 34.7096,190.973 34,189.5C 33.04,191.98 32.2066,194.48 31.5,197C 33.2678,210.133 35.9344,222.967 39.5,235.5C 37.3213,230.188 34.8213,224.854 32,219.5C 30.8276,214.146 29.6609,208.813 28.5,203.5C 27.0073,192.043 26.0073,180.543 25.5,169C 25.1249,158.798 26.4583,148.965 29.5,139.5C 27.5677,155.468 27.2344,171.468 28.5,187.5C 29.9374,190.044 31.4374,190.044 33,187.5C 33.2534,174.357 33.5868,161.024 34,147.5C 34.7042,140.687 36.0376,134.02 38,127.5C 38.2355,125.881 39.0689,124.881 40.5,124.5 Z"/></g>
<g><path style="opacity:1" fill="#045e8c" d="M 288.5,152.5 C 289.659,163.993 289.826,175.659 289,187.5C 288.462,192.781 287.295,197.781 285.5,202.5C 288.154,185.963 289.154,169.296 288.5,152.5 Z"/></g>
<g><path style="opacity:1" fill="#2c6384" d="M 266.5,181.5 C 273.09,186.419 279.09,192.086 284.5,198.5C 283.635,199.583 282.635,199.749 281.5,199C 276.267,193.275 271.267,187.442 266.5,181.5 Z"/></g>
<g><path style="opacity:0.475" fill="#0a4259" d="M 323.5,187.5 C 323.673,193.934 323.006,200.267 321.5,206.5C 320.358,200.034 321.025,193.701 323.5,187.5 Z"/></g>
<g><path style="opacity:1" fill="#0284cf" d="M 267.5,92.5 C 268.583,92.5394 269.583,92.8728 270.5,93.5C 274.333,100.124 278.166,106.791 282,113.5C 286.058,125.008 289.724,136.675 293,148.5C 293.101,152.075 292.601,155.575 291.5,159C 291.797,161.838 292.13,164.671 292.5,167.5C 291.268,180.038 290.601,192.538 290.5,205C 287.807,215.22 283.14,224.387 276.5,232.5C 277.833,235.167 277.833,237.833 276.5,240.5C 273.647,241.191 271.147,242.524 269,244.5C 266.152,248.565 263.652,252.731 261.5,257C 246.955,259.035 232.289,259.868 217.5,259.5C 217.5,262.167 217.5,264.833 217.5,267.5C 223.529,266.654 229.529,266.32 235.5,266.5C 238.226,266.682 240.893,267.182 243.5,268C 244.788,270.466 244.788,272.966 243.5,275.5C 241.518,276.216 239.851,277.383 238.5,279C 236.866,279.494 235.199,279.66 233.5,279.5C 236.167,277.167 238.833,274.833 241.5,272.5C 242.404,271.791 242.737,270.791 242.5,269.5C 234.167,269.5 225.833,269.5 217.5,269.5C 216.883,269.389 216.383,269.056 216,268.5C 215.207,264.577 215.374,260.744 216.5,257C 230.167,256.667 243.833,256.333 257.5,256C 270.7,240.096 280.034,222.263 285.5,202.5C 287.295,197.781 288.462,192.781 289,187.5C 289.826,175.659 289.659,163.993 288.5,152.5C 286.484,130.744 279.484,110.744 267.5,92.5 Z"/></g>
<g><path style="opacity:1" fill="#0f3a66" d="M 0.5,174.5 C 2.24386,184.219 4.24386,193.886 6.5,203.5C 7.78683,204.871 8.4535,206.705 8.5,209C 8.4535,211.295 7.78683,213.129 6.5,214.5C 3.3413,201.367 1.3413,188.033 0.5,174.5 Z"/></g>
<g><path style="opacity:1" fill="#034681" d="M 16.5,181.5 C 18.4235,187.561 19.5901,193.894 20,200.5C 22.8955,211.279 26.0622,221.946 29.5,232.5C 28.5041,232.586 27.6708,232.252 27,231.5C 25.838,225.747 23.838,220.414 21,215.5C 20.1964,207.289 18.6964,199.289 16.5,191.5C 16.5,188.167 16.5,184.833 16.5,181.5 Z"/></g>
<g><path style="opacity:1" fill="#47586b" d="M 55.5,205.5 C 66.5733,214.399 77.24,223.899 87.5,234C 86.5,234.667 85.5,234.667 84.5,234C 75,225.167 65.5,216.333 56,207.5C 55.5357,206.906 55.369,206.239 55.5,205.5 Z"/></g>
<g><path style="opacity:1" fill="#0183c5" d="M 319.5,131.5 C 321.089,137.115 322.423,142.781 323.5,148.5C 323.171,161.344 323.505,174.011 324.5,186.5C 324.5,187.167 324.167,187.5 323.5,187.5C 321.025,193.701 320.358,200.034 321.5,206.5C 321.5,207.167 321.167,207.5 320.5,207.5C 319.883,207.611 319.383,207.944 319,208.5C 315.957,223.375 310.791,237.375 303.5,250.5C 303.34,248.801 303.506,247.134 304,245.5C 307.006,242.802 308.173,239.635 307.5,236C 308.127,233.865 308.627,231.698 309,229.5C 310.442,227.609 311.609,225.609 312.5,223.5C 313.232,222.192 314.066,220.858 315,219.5C 317.251,207.163 319.585,194.829 322,182.5C 322.667,171.5 322.667,160.5 322,149.5C 320.199,143.63 319.365,137.63 319.5,131.5 Z"/></g>
<g><path style="opacity:1" fill="#034b94" d="M 37.5,180.5 C 38.1667,182.5 38.8333,184.5 39.5,186.5C 41.2516,197.75 44.0849,208.75 48,219.5C 52.9231,229.017 58.0897,238.35 63.5,247.5C 59.8236,244.932 56.4902,241.932 53.5,238.5C 52.2268,238.746 51.0601,238.746 50,238.5C 49.6466,237.328 49.8132,236.162 50.5,235C 48.374,232.586 47.0406,229.753 46.5,226.5C 45.3049,224.703 43.6382,223.703 41.5,223.5C 41.4658,216.747 40.7992,210.08 39.5,203.5C 38.5055,195.865 37.8388,188.198 37.5,180.5 Z"/></g>
<g><path style="opacity:1" fill="#004199" d="M 5.5,181.5 C 6.25955,186.15 6.92622,190.817 7.5,195.5C 8.67504,195.281 9.67504,195.614 10.5,196.5C 12.8738,201.258 14.7071,206.258 16,211.5C 16.6095,204.811 16.4428,198.144 15.5,191.5C 15.8333,191.5 16.1667,191.5 16.5,191.5C 18.6964,199.289 20.1964,207.289 21,215.5C 23.838,220.414 25.838,225.747 27,231.5C 27.6708,232.252 28.5041,232.586 29.5,232.5C 29.8374,239.17 32.3374,244.837 37,249.5C 37.3333,251.167 37.6667,252.833 38,254.5C 41.0189,257.585 43.6855,260.919 46,264.5C 46.4828,265.448 46.6495,266.448 46.5,267.5C 47.5,267.5 48.5,267.5 49.5,267.5C 49.9464,271.573 52.2798,273.573 56.5,273.5C 60.1667,276.5 63.5,279.833 66.5,283.5C 66.7086,284.922 67.2086,286.255 68,287.5C 71.6787,289.757 74.8454,292.59 77.5,296C 85.3414,300.286 93.008,304.786 100.5,309.5C 102.226,314.692 105.892,316.859 111.5,316C 112.167,317.333 113.167,318.333 114.5,319C 113.692,319.308 113.025,319.808 112.5,320.5C 117.666,324.176 117.332,325.842 111.5,325.5C 105.719,323.353 100.053,321.02 94.5,318.5C 89.5644,315.358 84.5644,312.191 79.5,309C 75.4598,307.31 71.4598,305.643 67.5,304C 65.9586,302.629 64.6253,301.129 63.5,299.5C 59.8906,294.553 55.8906,289.886 51.5,285.5C 49.1667,284.5 47.5,282.833 46.5,280.5C 45.675,279.614 44.675,279.281 43.5,279.5C 43.6495,278.448 43.4828,277.448 43,276.5C 36.848,270.182 31.6813,263.182 27.5,255.5C 22.7392,248.373 19.2392,240.707 17,232.5C 15,231.833 13.6667,230.5 13,228.5C 11.7355,224.246 10.9022,219.912 10.5,215.5C 9.5,215.5 8.5,215.5 7.5,215.5C 6.83333,215.5 6.5,215.167 6.5,214.5C 7.78683,213.129 8.4535,211.295 8.5,209C 8.4535,206.705 7.78683,204.871 6.5,203.5C 5.94387,197.828 5.27721,192.161 4.5,186.5C 4.50681,184.631 4.84014,182.964 5.5,181.5 Z"/></g>
<g><path style="opacity:1" fill="#0d3564" d="M 7.5,215.5 C 8.5,215.5 9.5,215.5 10.5,215.5C 10.9022,219.912 11.7355,224.246 13,228.5C 13.6667,230.5 15,231.833 17,232.5C 19.2392,240.707 22.7392,248.373 27.5,255.5C 27.3433,256.873 27.51,258.207 28,259.5C 29.6324,261.933 31.1324,264.433 32.5,267C 32.4301,267.765 32.0967,268.265 31.5,268.5C 19.9757,252.45 11.9757,234.783 7.5,215.5 Z"/></g>
<g><path style="opacity:1" fill="#043c77" d="M 29.5,232.5 C 33.4522,238.463 36.9522,244.796 40,251.5C 45.2748,259.072 50.7748,266.405 56.5,273.5C 52.2798,273.573 49.9464,271.573 49.5,267.5C 48.5,267.5 47.5,267.5 46.5,267.5C 46.6495,266.448 46.4828,265.448 46,264.5C 43.6855,260.919 41.0189,257.585 38,254.5C 37.6667,252.833 37.3333,251.167 37,249.5C 32.3374,244.837 29.8374,239.17 29.5,232.5 Z"/></g>
<g><path style="opacity:1" fill="#00438b" d="M 39.5,235.5 C 41.2474,235.593 43.0807,235.926 45,236.5C 44.4271,242.563 46.9271,246.397 52.5,248C 51.3322,249.871 51.8322,251.371 54,252.5C 55.0363,257.714 57.8696,261.714 62.5,264.5C 63.3094,266.071 63.6427,267.738 63.5,269.5C 53.5358,259.578 45.5358,248.245 39.5,235.5 Z"/></g>
<g><path style="opacity:1" fill="#0f4363" d="M 74.5,259.5 C 95.5,259.5 116.5,259.5 137.5,259.5C 137.737,260.791 137.404,261.791 136.5,262.5C 116.02,260.837 95.3535,259.837 74.5,259.5 Z"/></g>
<g><path style="opacity:1" fill="#0044a0" d="M 39.5,203.5 C 40.7992,210.08 41.4658,216.747 41.5,223.5C 43.6382,223.703 45.3049,224.703 46.5,226.5C 47.0406,229.753 48.374,232.586 50.5,235C 49.8132,236.162 49.6466,237.328 50,238.5C 51.0601,238.746 52.2268,238.746 53.5,238.5C 56.4902,241.932 59.8236,244.932 63.5,247.5C 63.3433,248.873 63.51,250.207 64,251.5C 67.8577,257.177 73.0243,261.177 79.5,263.5C 80.8121,265.479 82.4788,267.145 84.5,268.5C 86.8839,269.011 88.8839,270.011 90.5,271.5C 88.0848,272.982 87.4181,274.982 88.5,277.5C 92.4295,279.242 96.0962,281.242 99.5,283.5C 103.893,290.679 102.893,291.346 96.5,285.5C 95.6376,286.766 94.9709,288.099 94.5,289.5C 88.3916,288.732 83.725,285.399 80.5,279.5C 80.5105,280.441 80.0105,281.108 79,281.5C 76.9506,279.221 74.4506,277.554 71.5,276.5C 70.2603,272.593 67.5936,270.593 63.5,270.5C 63.5,270.167 63.5,269.833 63.5,269.5C 63.6427,267.738 63.3094,266.071 62.5,264.5C 57.8696,261.714 55.0363,257.714 54,252.5C 51.8322,251.371 51.3322,249.871 52.5,248C 46.9271,246.397 44.4271,242.563 45,236.5C 43.0807,235.926 41.2474,235.593 39.5,235.5C 35.9344,222.967 33.2678,210.133 31.5,197C 32.2066,194.48 33.04,191.98 34,189.5C 34.7096,190.973 35.8762,191.64 37.5,191.5C 37.335,194.85 37.5017,198.183 38,201.5C 38.2784,202.416 38.7784,203.082 39.5,203.5 Z"/></g>
<g><path style="opacity:1" fill="#0267ad" d="M 63.5,247.5 C 66.7004,251.879 70.3671,255.879 74.5,259.5C 95.3535,259.837 116.02,260.837 136.5,262.5C 133.361,266.47 129.695,269.97 125.5,273C 114.172,273.5 102.838,273.667 91.5,273.5C 91.281,274.675 91.6143,275.675 92.5,276.5C 96.0569,279.433 99.7236,282.099 103.5,284.5C 102.041,284.567 100.708,284.234 99.5,283.5C 96.0962,281.242 92.4295,279.242 88.5,277.5C 87.4181,274.982 88.0848,272.982 90.5,271.5C 102.512,270.904 114.512,269.904 126.5,268.5C 129.338,267.488 130.671,265.488 130.5,262.5C 113.465,262.209 96.4653,262.542 79.5,263.5C 73.0243,261.177 67.8577,257.177 64,251.5C 63.51,250.207 63.3433,248.873 63.5,247.5 Z"/></g>
<g><path style="opacity:1" fill="#006ed1" d="M 90.5,271.5 C 88.8839,270.011 86.8839,269.011 84.5,268.5C 82.4788,267.145 80.8121,265.479 79.5,263.5C 96.4653,262.542 113.465,262.209 130.5,262.5C 130.671,265.488 129.338,267.488 126.5,268.5C 114.512,269.904 102.512,270.904 90.5,271.5 Z"/></g>
<g><path style="opacity:1" fill="#09415c" d="M 217.5,269.5 C 225.833,269.5 234.167,269.5 242.5,269.5C 242.737,270.791 242.404,271.791 241.5,272.5C 233.719,270.846 225.719,269.846 217.5,269.5 Z"/></g>
<g><path style="opacity:1" fill="#024285" d="M 27.5,255.5 C 31.6813,263.182 36.848,270.182 43,276.5C 43.4828,277.448 43.6495,278.448 43.5,279.5C 44.675,279.281 45.675,279.614 46.5,280.5C 47.5,282.833 49.1667,284.5 51.5,285.5C 55.8906,289.886 59.8906,294.553 63.5,299.5C 60.9438,298.457 58.7772,296.79 57,294.5C 56.5357,295.094 56.369,295.761 56.5,296.5C 55.5,296.167 54.8333,295.5 54.5,294.5C 55.525,294.103 55.6917,293.437 55,292.5C 47.9272,286.098 41.5939,279.098 36,271.5C 35.1841,270.177 34.0174,269.511 32.5,269.5C 31.8333,269.5 31.5,269.167 31.5,268.5C 32.0967,268.265 32.4301,267.765 32.5,267C 31.1324,264.433 29.6324,261.933 28,259.5C 27.51,258.207 27.3433,256.873 27.5,255.5 Z"/></g>
<g><path style="opacity:1" fill="#02458e" d="M 63.5,270.5 C 67.5936,270.593 70.2603,272.593 71.5,276.5C 74.4506,277.554 76.9506,279.221 79,281.5C 80.0105,281.108 80.5105,280.441 80.5,279.5C 83.725,285.399 88.3916,288.732 94.5,289.5C 96.1748,292.524 98.8415,294.358 102.5,295C 104.411,297.622 106.745,299.789 109.5,301.5C 115.533,302.863 120.866,305.197 125.5,308.5C 124.833,308.5 124.167,308.5 123.5,308.5C 99.6749,301.918 79.6749,289.252 63.5,270.5 Z"/></g>
<g><path style="opacity:0.235" fill="#0f2a43" d="M 32.5,269.5 C 34.0174,269.511 35.1841,270.177 36,271.5C 41.5939,279.098 47.9272,286.098 55,292.5C 55.6917,293.437 55.525,294.103 54.5,294.5C 46.4513,286.785 39.1179,278.452 32.5,269.5 Z"/></g>
<g><path style="opacity:1" fill="#027fc9" d="M 295.5,214.5 C 291.394,229.103 285.227,242.77 277,255.5C 269.556,263.615 262.056,271.781 254.5,280C 244.758,287.942 234.425,294.775 223.5,300.5C 223.5,298.833 223.5,297.167 223.5,295.5C 224.833,295.5 226.167,295.5 227.5,295.5C 227.146,293.459 227.146,291.626 227.5,290C 220.088,291.355 212.755,293.355 205.5,296C 201.515,298.702 197.182,300.868 192.5,302.5C 184.266,303.527 175.932,303.527 167.5,302.5C 170.167,301.833 172.833,301.167 175.5,300.5C 196.417,297.861 215.75,290.861 233.5,279.5C 233.389,280.117 233.056,280.617 232.5,281C 234.313,280.954 235.979,281.12 237.5,281.5C 235.589,284.122 233.255,286.289 230.5,288C 238.61,289.944 244.277,286.944 247.5,279C 250.362,278.73 253.028,277.896 255.5,276.5C 257.85,273.306 260.183,270.139 262.5,267C 263.448,266.517 264.448,266.351 265.5,266.5C 265.351,265.448 265.517,264.448 266,263.5C 271.27,258.892 274.937,253.225 277,246.5C 278.11,244.963 279.61,244.297 281.5,244.5C 281.953,240.307 283.119,236.307 285,232.5C 288.663,226.589 292.163,220.589 295.5,214.5 Z"/></g>
<g><path style="opacity:1" fill="#017ec3" d="M 298.5,227.5 C 297.733,233.51 296.566,239.177 295,244.5C 291.244,247.147 289.744,250.813 290.5,255.5C 288.418,255.472 286.584,256.139 285,257.5C 278.715,267.776 271.048,276.776 262,284.5C 260.579,287.009 258.912,289.343 257,291.5C 256.586,291.043 256.086,290.709 255.5,290.5C 253.046,293.96 249.713,295.627 245.5,295.5C 268.478,276.869 286.145,254.203 298.5,227.5 Z"/></g>
<g><path style="opacity:1" fill="#008ce5" d="M 312.5,223.5 C 311.609,225.609 310.442,227.609 309,229.5C 308.627,231.698 308.127,233.865 307.5,236C 308.173,239.635 307.006,242.802 304,245.5C 303.506,247.134 303.34,248.801 303.5,250.5C 292.248,273.096 276.248,291.763 255.5,306.5C 254.127,306.343 252.793,306.51 251.5,307C 242.629,313.767 232.962,318.934 222.5,322.5C 222.953,321.542 223.619,320.708 224.5,320C 226.972,318.54 229.639,317.54 232.5,317C 230.5,316.333 229.167,315 228.5,313C 226.527,312.505 224.527,312.338 222.5,312.5C 222.5,313.5 222.5,314.5 222.5,315.5C 214.649,318.15 206.649,320.317 198.5,322C 193.863,322.829 189.196,323.329 184.5,323.5C 188.619,322.262 192.953,321.429 197.5,321C 203.442,316.907 210.108,314.573 217.5,314C 218.167,313.333 218.833,312.667 219.5,312C 222.167,311.667 224.833,311.333 227.5,311C 228.38,309.644 228.714,308.144 228.5,306.5C 233.988,302.587 239.655,298.921 245.5,295.5C 249.713,295.627 253.046,293.96 255.5,290.5C 256.086,290.709 256.586,291.043 257,291.5C 258.912,289.343 260.579,287.009 262,284.5C 271.048,276.776 278.715,267.776 285,257.5C 286.584,256.139 288.418,255.472 290.5,255.5C 289.744,250.813 291.244,247.147 295,244.5C 296.566,239.177 297.733,233.51 298.5,227.5C 298.5,227.167 298.5,226.833 298.5,226.5C 300.772,225.277 301.939,223.277 302,220.5C 303.067,219.809 304.234,219.309 305.5,219C 306.591,210.02 308.424,200.853 311,191.5C 311.249,192.624 311.749,193.624 312.5,194.5C 314.677,193.496 315.011,194.162 313.5,196.5C 316.555,199.582 316.722,202.582 314,205.5C 313.641,211.523 313.141,217.523 312.5,223.5 Z"/></g>
<g><path style="opacity:1" fill="#024884" d="M 66.5,283.5 C 96.1429,310.371 131.143,323.371 171.5,322.5C 171.5,322.833 171.5,323.167 171.5,323.5C 162.139,323.687 152.805,323.354 143.5,322.5C 135.103,321.408 126.77,319.908 118.5,318C 112.2,315.716 106.2,312.882 100.5,309.5C 93.008,304.786 85.3414,300.286 77.5,296C 74.8454,292.59 71.6787,289.757 68,287.5C 67.2086,286.255 66.7086,284.922 66.5,283.5 Z"/></g>
<g><path style="opacity:1" fill="#025a99" d="M 103.5,284.5 C 116.141,291.327 129.474,296.494 143.5,300C 154.161,300.5 164.828,300.667 175.5,300.5C 172.833,301.167 170.167,301.833 167.5,302.5C 163.476,302.503 159.476,302.836 155.5,303.5C 147.605,302.893 139.939,301.56 132.5,299.5C 125.786,298.429 119.452,296.262 113.5,293C 112.833,292 112.167,291 111.5,290C 107.809,289.45 105.143,287.617 103.5,284.5 Z"/></g>
<g><path style="opacity:1" fill="#0059ba" d="M 99.5,283.5 C 100.708,284.234 102.041,284.567 103.5,284.5C 105.143,287.617 107.809,289.45 111.5,290C 112.167,291 112.833,292 113.5,293C 119.452,296.262 125.786,298.429 132.5,299.5C 133.972,301.134 135.638,302.634 137.5,304C 144.815,304.832 152.148,305.332 159.5,305.5C 159.33,306.822 159.663,307.989 160.5,309C 165.155,309.499 169.821,309.666 174.5,309.5C 174.5,310.5 174.5,311.5 174.5,312.5C 169.5,312.5 164.5,312.5 159.5,312.5C 148.678,312.184 138.012,310.85 127.5,308.5C 126.833,308.5 126.167,308.5 125.5,308.5C 120.866,305.197 115.533,302.863 109.5,301.5C 106.745,299.789 104.411,297.622 102.5,295C 98.8415,294.358 96.1748,292.524 94.5,289.5C 94.9709,288.099 95.6376,286.766 96.5,285.5C 102.893,291.346 103.893,290.679 99.5,283.5 Z"/></g>
<g><path style="opacity:1" fill="#0070cd" d="M 223.5,300.5 C 223.167,300.5 222.833,300.5 222.5,300.5C 210.898,305.087 198.898,308.587 186.5,311C 180.165,311.803 173.832,312.637 167.5,313.5C 164.645,313.497 161.978,313.164 159.5,312.5C 164.5,312.5 169.5,312.5 174.5,312.5C 174.5,311.5 174.5,310.5 174.5,309.5C 169.821,309.666 165.155,309.499 160.5,309C 159.663,307.989 159.33,306.822 159.5,305.5C 152.148,305.332 144.815,304.832 137.5,304C 135.638,302.634 133.972,301.134 132.5,299.5C 139.939,301.56 147.605,302.893 155.5,303.5C 159.476,302.836 163.476,302.503 167.5,302.5C 175.932,303.527 184.266,303.527 192.5,302.5C 197.182,300.868 201.515,298.702 205.5,296C 212.755,293.355 220.088,291.355 227.5,290C 227.146,291.626 227.146,293.459 227.5,295.5C 226.167,295.5 224.833,295.5 223.5,295.5C 223.5,297.167 223.5,298.833 223.5,300.5 Z"/></g>
<g><path style="opacity:1" fill="#006eb5" d="M 222.5,300.5 C 219.345,302.542 216.011,304.376 212.5,306C 205.464,309.009 198.13,311.176 190.5,312.5C 176.893,314.355 163.226,314.855 149.5,314C 141.858,312.903 134.525,311.069 127.5,308.5C 138.012,310.85 148.678,312.184 159.5,312.5C 161.978,313.164 164.645,313.497 167.5,313.5C 173.832,312.637 180.165,311.803 186.5,311C 198.898,308.587 210.898,305.087 222.5,300.5 Z"/></g>
<g><path style="opacity:1" fill="#034c7d" d="M 123.5,308.5 C 124.167,308.5 124.833,308.5 125.5,308.5C 126.167,308.5 126.833,308.5 127.5,308.5C 134.525,311.069 141.858,312.903 149.5,314C 163.226,314.855 176.893,314.355 190.5,312.5C 170.947,316.588 151.281,316.421 131.5,312C 128.691,310.907 126.024,309.74 123.5,308.5 Z"/></g>
<g><path style="opacity:1" fill="#103966" d="M 63.5,299.5 C 64.6253,301.129 65.9586,302.629 67.5,304C 71.4598,305.643 75.4598,307.31 79.5,309C 84.5644,312.191 89.5644,315.358 94.5,318.5C 94.9443,320.113 95.9443,321.28 97.5,322C 105.481,325.488 113.481,328.654 121.5,331.5C 114.321,330.052 107.321,327.886 100.5,325C 84.3257,317.751 69.659,308.251 56.5,296.5C 56.369,295.761 56.5357,295.094 57,294.5C 58.7772,296.79 60.9438,298.457 63.5,299.5 Z"/></g>
<g><path style="opacity:1" fill="#0054ab" d="M 100.5,309.5 C 106.2,312.882 112.2,315.716 118.5,318C 126.77,319.908 135.103,321.408 143.5,322.5C 144.833,323.167 146.167,323.833 147.5,324.5C 145.266,324.38 143.099,324.713 141,325.5C 136.291,324.351 131.291,323.351 126,322.5C 124.933,323.191 123.766,323.691 122.5,324C 125.102,324.883 127.269,326.383 129,328.5C 129.414,328.043 129.914,327.709 130.5,327.5C 133.225,329.365 136.225,330.365 139.5,330.5C 143.486,329.667 147.486,329.501 151.5,330C 149.109,331.309 149.109,332.309 151.5,333C 158.158,333.5 164.825,333.666 171.5,333.5C 171.5,333.833 171.5,334.167 171.5,334.5C 164.173,334.944 156.84,335.277 149.5,335.5C 146.721,335.721 144.054,335.388 141.5,334.5C 131.572,331.333 121.572,328.333 111.5,325.5C 117.332,325.842 117.666,324.176 112.5,320.5C 113.025,319.808 113.692,319.308 114.5,319C 113.167,318.333 112.167,317.333 111.5,316C 105.892,316.859 102.226,314.692 100.5,309.5 Z"/></g>
<g><path style="opacity:1" fill="#036eaa" d="M 228.5,306.5 C 228.714,308.144 228.38,309.644 227.5,311C 224.833,311.333 222.167,311.667 219.5,312C 218.833,312.667 218.167,313.333 217.5,314C 210.108,314.573 203.442,316.907 197.5,321C 192.953,321.429 188.619,322.262 184.5,323.5C 180.167,323.5 175.833,323.5 171.5,323.5C 171.5,323.167 171.5,322.833 171.5,322.5C 191.437,320.409 210.437,315.075 228.5,306.5 Z"/></g>
<g><path style="opacity:1" fill="#044e8c" d="M 94.5,318.5 C 100.053,321.02 105.719,323.353 111.5,325.5C 121.572,328.333 131.572,331.333 141.5,334.5C 136.562,334.612 131.729,333.945 127,332.5C 125.93,332.528 125.097,332.861 124.5,333.5C 123.29,333.068 122.29,332.401 121.5,331.5C 113.481,328.654 105.481,325.488 97.5,322C 95.9443,321.28 94.9443,320.113 94.5,318.5 Z"/></g>
<g><path style="opacity:0.694" fill="#103f59" d="M 320.5,207.5 C 308.232,263.494 275.899,303.327 223.5,327C 207.561,333.047 191.228,336.88 174.5,338.5C 167.167,338.5 159.833,338.5 152.5,338.5C 143.29,336.861 133.957,335.194 124.5,333.5C 125.097,332.861 125.93,332.528 127,332.5C 131.729,333.945 136.562,334.612 141.5,334.5C 144.054,335.388 146.721,335.721 149.5,335.5C 188.62,339.217 223.954,329.551 255.5,306.5C 276.248,291.763 292.248,273.096 303.5,250.5C 310.791,237.375 315.957,223.375 319,208.5C 319.383,207.944 319.883,207.611 320.5,207.5 Z"/></g>
<g><path style="opacity:1" fill="#0065c6" d="M 147.5,324.5 C 155.786,325.274 164.12,325.774 172.5,326C 169.6,326.943 167.267,328.61 165.5,331C 167.974,331.037 169.974,331.87 171.5,333.5C 164.825,333.666 158.158,333.5 151.5,333C 149.109,332.309 149.109,331.309 151.5,330C 147.486,329.501 143.486,329.667 139.5,330.5C 136.225,330.365 133.225,329.365 130.5,327.5C 129.914,327.709 129.414,328.043 129,328.5C 127.269,326.383 125.102,324.883 122.5,324C 123.766,323.691 124.933,323.191 126,322.5C 131.291,323.351 136.291,324.351 141,325.5C 143.099,324.713 145.266,324.38 147.5,324.5 Z"/></g>
<g><path style="opacity:1" fill="#007cd7" d="M 222.5,322.5 C 220.254,323.21 217.92,323.71 215.5,324C 210.48,327.159 205.147,329.493 199.5,331C 190.153,332.168 180.82,333.335 171.5,334.5C 171.5,334.167 171.5,333.833 171.5,333.5C 169.974,331.87 167.974,331.037 165.5,331C 167.267,328.61 169.6,326.943 172.5,326C 164.12,325.774 155.786,325.274 147.5,324.5C 146.167,323.833 144.833,323.167 143.5,322.5C 152.805,323.354 162.139,323.687 171.5,323.5C 175.833,323.5 180.167,323.5 184.5,323.5C 189.196,323.329 193.863,322.829 198.5,322C 206.649,320.317 214.649,318.15 222.5,315.5C 222.5,314.5 222.5,313.5 222.5,312.5C 224.527,312.338 226.527,312.505 228.5,313C 229.167,315 230.5,316.333 232.5,317C 229.639,317.54 226.972,318.54 224.5,320C 223.619,320.708 222.953,321.542 222.5,322.5 Z"/></g>
<g><path style="opacity:1" fill="#007ac0" d="M 255.5,306.5 C 223.954,329.551 188.62,339.217 149.5,335.5C 156.84,335.277 164.173,334.944 171.5,334.5C 180.82,333.335 190.153,332.168 199.5,331C 205.147,329.493 210.48,327.159 215.5,324C 217.92,323.71 220.254,323.21 222.5,322.5C 232.962,318.934 242.629,313.767 251.5,307C 252.793,306.51 254.127,306.343 255.5,306.5 Z"/></g>
</svg>
